<svg width="178" height="28" viewBox="0 0 178 28" fill="none" xmlns="http://www.w3.org/2000/svg">
<path d="M128 9.02979H132.37C135.89 9.02979 138.32 11.4498 138.32 14.5998V14.6298C138.32 17.7798 135.89 20.2298 132.37 20.2298H128V9.02979ZM132.37 18.0098C134.39 18.0098 135.75 16.6498 135.75 14.6598V14.6298C135.75 12.6498 134.39 11.2498 132.37 11.2498H130.46V17.9998H132.37V18.0098Z" fill="#BBBBBB"/>
<path d="M140.62 14.6598V14.6298C140.62 11.4398 143.13 8.83984 146.59 8.83984C150.05 8.83984 152.53 11.4198 152.53 14.5998V14.6298C152.53 17.8198 150.02 20.4198 146.56 20.4198C143.1 20.4198 140.62 17.8498 140.62 14.6598ZM149.95 14.6598V14.6298C149.95 12.7098 148.54 11.1098 146.56 11.1098C144.58 11.1098 143.2 12.6798 143.2 14.5998V14.6298C143.2 16.5498 144.61 18.1498 146.59 18.1498C148.57 18.1498 149.95 16.5798 149.95 14.6598Z" fill="#BBBBBB"/>
<path d="M155.82 14.6598V14.6298C155.82 11.4398 158.22 8.83984 161.66 8.83984C163.77 8.83984 165.04 9.53984 166.08 10.5698L164.51 12.3798C163.65 11.5998 162.76 11.1198 161.64 11.1198C159.75 11.1198 158.39 12.6898 158.39 14.6098V14.6398C158.39 16.5598 159.72 18.1598 161.64 18.1598C162.92 18.1598 163.71 17.6498 164.59 16.8498L166.16 18.4298C165.01 19.6598 163.73 20.4298 161.57 20.4298C158.27 20.4198 155.82 17.8798 155.82 14.6598Z" fill="#BBBBBB"/>
<path d="M168.95 18.5997L170.41 16.8597C171.42 17.6897 172.47 18.2197 173.75 18.2197C174.76 18.2197 175.37 17.8197 175.37 17.1597V17.1297C175.37 16.5097 174.99 16.1897 173.11 15.7097C170.85 15.1297 169.4 14.5097 169.4 12.2797V12.2497C169.4 10.2197 171.03 8.86963 173.32 8.86963C174.95 8.86963 176.35 9.37963 177.48 10.2897L176.2 12.1497C175.21 11.4597 174.23 11.0497 173.29 11.0497C172.35 11.0497 171.85 11.4797 171.85 12.0297V12.0597C171.85 12.7997 172.33 13.0397 174.27 13.5297C176.54 14.1197 177.82 14.9397 177.82 16.8897V16.9197C177.82 19.1497 176.12 20.3897 173.71 20.3897C172.01 20.3897 170.3 19.7997 168.95 18.5997Z" fill="#BBBBBB"/>
<path d="M114.38 0.149902H113.86V27.9199H114.38V0.149902Z" fill="#BBBBBB"/>
<path d="M12.341 0L0.300293 6.95233V20.8523L12.341 27.8L24.3725 20.8523V6.95233L12.341 0ZM20.8078 18.7927L12.341 23.6808L3.86965 18.7927V9.00727L12.341 4.11921L20.8078 9.00727V18.7927Z" fill="white"/>
<path d="M17.9558 17.148L12.3362 20.3912L6.71191 17.148V10.657L12.3362 7.40918L17.9558 10.657L15.6166 12.0083L12.3362 10.1118L9.05576 12.0083V15.792L12.3362 17.6885L15.6166 15.792L17.9558 17.148Z" fill="white"/>
<path d="M33.2821 14.9531V14.9158C33.274 14.1792 33.4131 13.4485 33.6912 12.7664C33.9693 12.0843 34.3809 11.4647 34.9018 10.9438C35.4226 10.4229 36.0423 10.0114 36.7244 9.73323C37.4065 9.4551 38.1372 9.316 38.8738 9.32411C39.6814 9.29586 40.4851 9.44858 41.226 9.77108C41.967 10.0936 42.6264 10.5777 43.1561 11.188L41.6137 12.8329C40.8635 12.0594 40.0713 11.4909 38.8551 11.4909C37.0705 11.4909 35.7518 13.0333 35.7518 14.9018V14.9438C35.7518 16.8496 37.0705 18.3687 38.953 18.3687C39.4856 18.3583 40.0101 18.2355 40.4919 18.0083C40.9738 17.781 41.4021 17.4544 41.7488 17.05L43.2306 18.5131C42.4946 19.3926 41.5069 20.0256 40.4004 20.3271C39.2939 20.6285 38.1216 20.5839 37.0412 20.1992C35.9608 19.8146 35.0241 19.1083 34.3571 18.1754C33.6901 17.2425 33.3247 16.1278 33.3101 14.981L33.2821 14.9531Z" fill="white"/>
<path d="M45.4346 9.53865H47.9089V11.9524C48.5799 10.3494 49.8148 9.25441 51.702 9.33362V11.9338H51.5622C49.4094 11.9338 47.9089 13.3317 47.9089 16.1695V20.2467H45.4346V9.53865Z" fill="white"/>
<path d="M52.8809 14.9531V14.9158C52.9176 13.4291 53.5325 12.0153 54.5951 10.9749C55.6576 9.93439 57.0839 9.34925 58.5711 9.34379C60.0582 9.33833 61.4888 9.91297 62.5589 10.9456C63.6291 11.9782 64.2544 13.3875 64.3019 14.8738V14.9158C64.3022 15.6628 64.1528 16.4023 63.8625 17.0906C63.5722 17.779 63.147 18.4021 62.6118 18.9234C62.0767 19.4446 61.4425 19.8533 60.7468 20.1254C60.0511 20.3975 59.3079 20.5274 58.5611 20.5075C57.8207 20.5261 57.0841 20.3962 56.3947 20.1253C55.7054 19.8543 55.0773 19.4479 54.5478 18.9301C54.0182 18.4123 53.5978 17.7935 53.3115 17.1104C53.0252 16.4273 52.8788 15.6937 52.8809 14.9531ZM61.8463 14.9531V14.9158C61.8651 14.4714 61.7942 14.0278 61.6379 13.6115C61.4815 13.1951 61.243 12.8144 60.9364 12.4922C60.6299 12.17 60.2616 11.9128 59.8535 11.736C59.4454 11.5591 59.0059 11.4663 58.5611 11.4629C56.5901 11.4629 55.332 13.0053 55.332 14.8738V14.9158C55.3151 15.3564 55.3868 15.7959 55.5427 16.2083C55.6986 16.6207 55.9356 16.9977 56.2396 17.317C56.5437 17.6363 56.9087 17.8914 57.3131 18.0672C57.7174 18.243 58.1529 18.336 58.5938 18.3407C60.5881 18.3407 61.8463 16.7983 61.8463 14.9531Z" fill="white"/>
<path d="M66.7759 9.5385H69.2409V11.1834C69.5902 10.6093 70.0826 10.1357 70.6699 9.80892C71.2572 9.4822 71.9193 9.31355 72.5913 9.31949C75.005 9.31949 76.4029 10.9411 76.4029 13.4154V20.2513H73.9472V14.161C73.9472 12.4975 73.1178 11.5469 71.6547 11.5469C70.1915 11.5469 69.2409 12.5441 69.2409 14.2029V20.2606H66.7666L66.7759 9.5385Z" fill="white"/>
<path d="M78.7891 14.9531V14.9158C78.8258 13.4291 79.4407 12.0153 80.5032 10.9749C81.5658 9.93439 82.9921 9.34925 84.4792 9.34379C85.9663 9.33833 87.397 9.91297 88.4671 10.9456C89.5372 11.9782 90.1626 13.3875 90.2101 14.8738V14.9158C90.2104 15.6628 90.061 16.4023 89.7707 17.0906C89.4804 17.779 89.0551 18.4021 88.52 18.9234C87.9849 19.4446 87.3507 19.8533 86.655 20.1254C85.9593 20.3975 85.2161 20.5274 84.4693 20.5075C83.7289 20.5261 82.9922 20.3962 82.3029 20.1253C81.6135 19.8543 80.9855 19.4479 80.456 18.9301C79.9264 18.4123 79.506 17.7935 79.2197 17.1104C78.9334 16.4273 78.787 15.6937 78.7891 14.9531ZM87.7544 14.9531V14.9158C87.7732 14.4714 87.7023 14.0278 87.546 13.6115C87.3897 13.1951 87.1512 12.8144 86.8446 12.4922C86.5381 12.17 86.1697 11.9128 85.7616 11.736C85.3536 11.5591 84.9141 11.4663 84.4693 11.4629C82.4983 11.4629 81.2401 13.0053 81.2401 14.8738V14.9158C81.2233 15.3564 81.2949 15.7959 81.4508 16.2083C81.6067 16.6207 81.8437 16.9977 82.1478 17.317C82.4519 17.6363 82.8169 17.8914 83.2212 18.0672C83.6256 18.243 84.0611 18.336 84.5019 18.3407C86.4823 18.3407 87.7544 16.7983 87.7544 14.9531Z" fill="white"/>
<path d="M91.8315 18.8488L92.9266 17.1853C93.9273 17.9848 95.1557 18.4464 96.4353 18.504C97.4931 18.504 98.0989 18.038 98.0989 17.3484V17.3064C98.0989 16.477 96.9665 16.1928 95.7084 15.806C94.1241 15.34 92.3581 14.711 92.3581 12.684V12.6421C92.3581 10.5918 94.0449 9.35693 96.1744 9.35693C97.5738 9.38294 98.9374 9.8046 100.107 10.5731L99.1333 12.3159C98.232 11.7218 97.1912 11.3732 96.1138 11.3047C95.1819 11.3047 94.6134 11.7707 94.6134 12.3578V12.3997C94.6134 13.1919 95.769 13.5134 97.0271 13.9188C98.5881 14.4081 100.354 15.1164 100.354 17.0455V17.0828C100.354 19.3381 98.6068 20.4518 96.3747 20.4518C94.7238 20.4399 93.1244 19.8756 91.8315 18.8488Z" fill="white"/>
</svg>
