<svg width="248" height="28" viewBox="0 0 248 28" fill="none" xmlns="http://www.w3.org/2000/svg">
<path d="M197.72 9.02979H202.09C205.61 9.02979 208.04 11.4498 208.04 14.5998V14.6298C208.04 17.7798 205.61 20.2298 202.09 20.2298H197.72V9.02979ZM202.09 18.0098C204.11 18.0098 205.47 16.6498 205.47 14.6598V14.6298C205.47 12.6498 204.11 11.2498 202.09 11.2498H200.18V17.9998H202.09V18.0098Z" fill="#BBBBBB"/>
<path d="M210.34 14.6598V14.6298C210.34 11.4398 212.85 8.83984 216.31 8.83984C219.77 8.83984 222.25 11.4198 222.25 14.5998V14.6298C222.25 17.8198 219.74 20.4198 216.28 20.4198C212.82 20.4198 210.34 17.8498 210.34 14.6598ZM219.67 14.6598V14.6298C219.67 12.7098 218.26 11.1098 216.28 11.1098C214.3 11.1098 212.92 12.6798 212.92 14.5998V14.6298C212.92 16.5498 214.33 18.1498 216.31 18.1498C218.29 18.1498 219.67 16.5798 219.67 14.6598Z" fill="#BBBBBB"/>
<path d="M225.54 14.6598V14.6298C225.54 11.4398 227.94 8.83984 231.38 8.83984C233.49 8.83984 234.76 9.53984 235.8 10.5698L234.23 12.3798C233.37 11.5998 232.48 11.1198 231.36 11.1198C229.47 11.1198 228.11 12.6898 228.11 14.6098V14.6398C228.11 16.5598 229.44 18.1598 231.36 18.1598C232.64 18.1598 233.43 17.6498 234.31 16.8498L235.88 18.4298C234.73 19.6598 233.45 20.4298 231.29 20.4298C227.99 20.4198 225.54 17.8798 225.54 14.6598Z" fill="#BBBBBB"/>
<path d="M238.67 18.5999L240.13 16.8599C241.14 17.6899 242.19 18.2199 243.47 18.2199C244.48 18.2199 245.09 17.8199 245.09 17.1599V17.1299C245.09 16.5099 244.71 16.1899 242.83 15.7099C240.57 15.1299 239.12 14.5099 239.12 12.2799V12.2499C239.12 10.2199 240.75 8.86987 243.04 8.86987C244.67 8.86987 246.07 9.37987 247.2 10.2899L245.92 12.1499C244.93 11.4599 243.95 11.0499 243.01 11.0499C242.07 11.0499 241.57 11.4799 241.57 12.0299V12.0599C241.57 12.7999 242.05 13.0399 243.99 13.5299C246.26 14.1199 247.54 14.9399 247.54 16.8899V16.9199C247.54 19.1499 245.84 20.3899 243.43 20.3899C241.73 20.3899 240.02 19.7999 238.67 18.5999Z" fill="#BBBBBB"/>
<path fill-rule="evenodd" clip-rule="evenodd" d="M133.76 20.4198C130.46 20.4198 128.01 17.8698 128.01 14.6498V14.6198C128.01 11.4298 130.41 8.81982 133.86 8.81982C135.97 8.81982 137.24 9.52982 138.28 10.5498L136.71 12.3598C135.84 11.5698 134.96 11.0898 133.84 11.0898C131.95 11.0898 130.59 12.6598 130.59 14.5798V14.6098C130.59 16.5298 131.92 18.1298 133.84 18.1298C135.12 18.1298 135.91 17.6198 136.79 16.8198L138.36 18.4098C137.2 19.6498 135.92 20.4198 133.76 20.4198Z" fill="#BBBBBB"/>
<path fill-rule="evenodd" clip-rule="evenodd" d="M148.95 20.2298V15.7298H144.4V20.2298H141.94V9.01978H144.4V13.4498H148.95V9.01978H151.42V20.2298H148.95Z" fill="#BBBBBB"/>
<path fill-rule="evenodd" clip-rule="evenodd" d="M160.2 11.8999L158.71 15.5399H161.69L160.2 11.8999ZM161.37 8.93994L166.18 20.2299H163.6L162.57 17.7199H157.83L156.8 20.2299H154.29L159.1 8.93994H161.37V8.93994Z" fill="#BBBBBB"/>
<path d="M171.88 9.01978H169.41V20.2298H171.88V9.01978Z" fill="#BBBBBB"/>
<path d="M184.59 20.2298L179.15 13.0998V20.2298H176.72V9.01978H178.99L184.25 15.9198V9.01978H186.68V20.2298H184.59Z" fill="#BBBBBB"/>
<path fill-rule="evenodd" clip-rule="evenodd" d="M133.76 20.4198C130.46 20.4198 128.01 17.8698 128.01 14.6498V14.6198C128.01 11.4298 130.41 8.81982 133.86 8.81982C135.97 8.81982 137.24 9.52982 138.28 10.5498L136.71 12.3598C135.84 11.5698 134.96 11.0898 133.84 11.0898C131.95 11.0898 130.59 12.6598 130.59 14.5798V14.6098C130.59 16.5298 131.92 18.1298 133.84 18.1298C135.12 18.1298 135.91 17.6198 136.79 16.8198L138.36 18.4098C137.2 19.6498 135.92 20.4198 133.76 20.4198Z" fill="#BBBBBB"/>
<path fill-rule="evenodd" clip-rule="evenodd" d="M148.95 20.2298V15.7298H144.4V20.2298H141.94V9.01978H144.4V13.4498H148.95V9.01978H151.42V20.2298H148.95Z" fill="#BBBBBB"/>
<path fill-rule="evenodd" clip-rule="evenodd" d="M160.2 11.8999L158.71 15.5399H161.69L160.2 11.8999ZM161.37 8.93994L166.18 20.2299H163.6L162.57 17.7199H157.83L156.8 20.2299H154.29L159.1 8.93994H161.37V8.93994Z" fill="#BBBBBB"/>
<path d="M114.38 0.149902H113.86V27.9199H114.38V0.149902Z" fill="#BBBBBB"/>
<g clip-path="url(#clip0)">
<path d="M12.3408 0L0.300049 6.95233V20.8523L12.3408 27.8L24.3723 20.8523V6.95233L12.3408 0ZM20.8076 18.7927L12.3408 23.6808L3.86941 18.7927V9.00727L12.3408 4.11921L20.8076 9.00727V18.7927Z" fill="white"/>
<path d="M17.9556 17.1478L12.336 20.391L6.71167 17.1478V10.6568L12.336 7.40894L17.9556 10.6568L15.6164 12.0081L12.336 10.1116L9.05552 12.0081V15.7918L12.336 17.6883L15.6164 15.7918L17.9556 17.1478Z" fill="white"/>
<path d="M33.2816 14.9531V14.9158C33.2735 14.1792 33.4126 13.4485 33.6907 12.7664C33.9688 12.0843 34.3804 11.4647 34.9013 10.9438C35.4221 10.4229 36.0418 10.0114 36.7239 9.73323C37.406 9.4551 38.1367 9.316 38.8733 9.32411C39.6809 9.29586 40.4846 9.44858 41.2255 9.77108C41.9665 10.0936 42.6259 10.5777 43.1556 11.188L41.6132 12.8329C40.863 12.0594 40.0708 11.4909 38.8546 11.4909C37.07 11.4909 35.7513 13.0333 35.7513 14.9018V14.9438C35.7513 16.8496 37.07 18.3687 38.9525 18.3687C39.4851 18.3583 40.0096 18.2355 40.4914 18.0083C40.9733 17.781 41.4016 17.4544 41.7483 17.05L43.2301 18.5131C42.4941 19.3926 41.5064 20.0256 40.3999 20.3271C39.2934 20.6285 38.1211 20.5839 37.0407 20.1992C35.9603 19.8146 35.0236 19.1083 34.3566 18.1754C33.6896 17.2425 33.3242 16.1278 33.3096 14.981L33.2816 14.9531Z" fill="white"/>
<path d="M45.4343 9.53865H47.9086V11.9524C48.5796 10.3494 49.8145 9.25441 51.7017 9.33362V11.9338H51.5619C49.4091 11.9338 47.9086 13.3317 47.9086 16.1695V20.2467H45.4343V9.53865Z" fill="white"/>
<path d="M52.8806 14.9531V14.9158C52.9173 13.4291 53.5322 12.0153 54.5948 10.9749C55.6573 9.93439 57.0836 9.34925 58.5708 9.34379C60.0579 9.33833 61.4885 9.91297 62.5586 10.9456C63.6288 11.9782 64.2541 13.3875 64.3016 14.8738V14.9158C64.3019 15.6628 64.1525 16.4023 63.8622 17.0906C63.5719 17.779 63.1467 18.4021 62.6115 18.9234C62.0764 19.4446 61.4422 19.8533 60.7465 20.1254C60.0508 20.3975 59.3076 20.5274 58.5608 20.5075C57.8204 20.5261 57.0838 20.3962 56.3944 20.1253C55.7051 19.8543 55.077 19.4479 54.5475 18.9301C54.0179 18.4123 53.5975 17.7935 53.3112 17.1104C53.0249 16.4273 52.8785 15.6937 52.8806 14.9531V14.9531ZM61.846 14.9531V14.9158C61.8648 14.4714 61.7939 14.0278 61.6376 13.6115C61.4812 13.1951 61.2427 12.8144 60.9361 12.4922C60.6296 12.17 60.2613 11.9128 59.8532 11.736C59.4451 11.5591 59.0056 11.4663 58.5608 11.4629C56.5898 11.4629 55.3317 13.0053 55.3317 14.8738V14.9158C55.3148 15.3564 55.3865 15.7959 55.5424 16.2083C55.6983 16.6207 55.9353 16.9977 56.2393 17.317C56.5434 17.6363 56.9084 17.8914 57.3128 18.0672C57.7171 18.243 58.1526 18.336 58.5935 18.3407C60.5878 18.3407 61.846 16.7983 61.846 14.9531Z" fill="white"/>
<path d="M66.7759 9.53874H69.2409V11.1836C69.5902 10.6095 70.0826 10.1359 70.6699 9.80916C71.2572 9.48244 71.9193 9.31379 72.5913 9.31973C75.005 9.31973 76.4029 10.9413 76.4029 13.4156V20.2515H73.9472V14.1612C73.9472 12.4977 73.1178 11.5471 71.6547 11.5471C70.1915 11.5471 69.2409 12.5443 69.2409 14.2031V20.2608H66.7666L66.7759 9.53874Z" fill="white"/>
<path d="M78.7886 14.9531V14.9158C78.8253 13.4291 79.4402 12.0153 80.5027 10.9749C81.5653 9.93439 82.9916 9.34925 84.4787 9.34379C85.9658 9.33833 87.3965 9.91297 88.4666 10.9456C89.5367 11.9782 90.1621 13.3875 90.2096 14.8738V14.9158C90.2099 15.6628 90.0605 16.4023 89.7702 17.0906C89.4799 17.779 89.0546 18.4021 88.5195 18.9234C87.9844 19.4446 87.3502 19.8533 86.6545 20.1254C85.9588 20.3975 85.2156 20.5274 84.4688 20.5075C83.7284 20.5261 82.9917 20.3962 82.3024 20.1253C81.613 19.8543 80.985 19.4479 80.4555 18.9301C79.9259 18.4123 79.5055 17.7935 79.2192 17.1104C78.9329 16.4273 78.7865 15.6937 78.7886 14.9531V14.9531ZM87.7539 14.9531V14.9158C87.7727 14.4714 87.7018 14.0278 87.5455 13.6115C87.3892 13.1951 87.1507 12.8144 86.8441 12.4922C86.5376 12.17 86.1692 11.9128 85.7611 11.736C85.3531 11.5591 84.9136 11.4663 84.4688 11.4629C82.4978 11.4629 81.2396 13.0053 81.2396 14.8738V14.9158C81.2228 15.3564 81.2944 15.7959 81.4503 16.2083C81.6062 16.6207 81.8432 16.9977 82.1473 17.317C82.4514 17.6363 82.8164 17.8914 83.2207 18.0672C83.6251 18.243 84.0606 18.336 84.5014 18.3407C86.4818 18.3407 87.7539 16.7983 87.7539 14.9531Z" fill="white"/>
<path d="M91.8313 18.8488L92.9264 17.1853C93.9271 17.9848 95.1555 18.4464 96.4351 18.504C97.4929 18.504 98.0987 18.038 98.0987 17.3484V17.3064C98.0987 16.477 96.9663 16.1928 95.7082 15.806C94.1239 15.34 92.3579 14.711 92.3579 12.684V12.6421C92.3579 10.5918 94.0447 9.35693 96.1742 9.35693C97.5736 9.38294 98.9372 9.8046 100.107 10.5731L99.1331 12.3159C98.2318 11.7218 97.191 11.3732 96.1136 11.3047C95.1817 11.3047 94.6132 11.7707 94.6132 12.3578V12.3997C94.6132 13.1919 95.7688 13.5134 97.0269 13.9188C98.5879 14.4081 100.354 15.1164 100.354 17.0455V17.0828C100.354 19.3381 98.6066 20.4518 96.3745 20.4518C94.7236 20.4399 93.1242 19.8756 91.8313 18.8488V18.8488Z" fill="white"/>
</g>
<defs>
<clipPath id="clip0">
<rect width="100.049" height="27.8" fill="white" transform="translate(0.300049)"/>
</clipPath>
</defs>
</svg>
