<svg width="159" height="32" viewBox="0 0 159 32" fill="none" xmlns="http://www.w3.org/2000/svg">
<path fill-rule="evenodd" clip-rule="evenodd" d="M41.054 23.1597C37.5757 23.1597 35.0054 20.4351 35.0054 17.0885C35.0054 13.742 37.5757 10.9506 41.0756 10.9506C43.2922 10.9506 44.6658 11.771 45.7515 12.9677L44.09 14.7619C43.2696 13.8982 42.4059 13.2998 41.054 13.2998C39.1036 13.2998 37.6858 14.9839 37.6858 17.0443C37.6858 19.1489 39.1262 20.833 41.1866 20.833C42.4501 20.833 43.3806 20.2347 44.2227 19.371L45.8399 20.9657C44.6884 22.2509 43.3364 23.1597 41.054 23.1597Z" fill="white"/>
<path fill-rule="evenodd" clip-rule="evenodd" d="M50.928 23.1597H48.2476V10.9732H50.928V13.8314C51.659 12.0806 53.011 10.8838 55.0714 10.9732V13.8098H54.9161C52.5678 13.8098 50.928 15.3386 50.928 18.4405V23.1597Z" fill="white"/>
<path fill-rule="evenodd" clip-rule="evenodd" d="M69.1058 10.9506L63.1814 26.4404H60.4633L61.7579 23.1635L56.6821 10.9506H59.5404L63.0036 19.9712L66.3284 10.9506H69.1058Z" fill="white"/>
<path fill-rule="evenodd" clip-rule="evenodd" d="M77.0153 13.2774C75.1986 13.2774 73.6029 14.762 73.6029 17.0444C73.6029 19.3269 75.1986 20.8106 77.0153 20.8106C78.8546 20.8106 80.3609 19.3711 80.3609 17.0444C80.3609 14.7394 78.8321 13.2774 77.0153 13.2774ZM77.6352 23.1372C75.7084 23.1372 74.4891 22.1625 73.6687 21.0768V26.4395H70.9883V10.9507H73.6687V13.1438C74.5333 11.9254 75.7526 10.9507 77.6352 10.9507C80.405 10.9507 83.0864 13.1438 83.0864 17.0444C83.0864 20.9442 80.4276 23.1372 77.6352 23.1372Z" fill="white"/>
<path fill-rule="evenodd" clip-rule="evenodd" d="M88.9637 13.4993V19.2365C88.9637 20.277 89.4925 20.6976 90.4032 20.6976H91.455V23.092H89.6214C87.6701 23.0863 86.2833 22.2189 86.2833 19.657V13.4993H84.7949V11.1971H86.2833V7.98322H88.9637V11.1971H91.455V13.4993H88.9637Z" fill="white"/>
<path fill-rule="evenodd" clip-rule="evenodd" d="M99.9351 13.2994C97.7854 13.2994 96.4117 14.9835 96.4117 17.0439C96.4117 19.1269 97.8964 20.8327 99.9794 20.8327C102.15 20.8327 103.524 19.1495 103.524 17.0882C103.524 15.0052 102.04 13.2994 99.9351 13.2994ZM99.9352 23.1593C96.3676 23.1593 93.7305 20.4347 93.7305 17.0882C93.7305 13.72 96.3893 10.9502 99.9795 10.9502C103.569 10.9502 106.206 13.6758 106.206 17.0439C106.206 20.3905 103.546 23.1593 99.9352 23.1593Z" fill="white"/>
<path fill-rule="evenodd" clip-rule="evenodd" d="M111.113 20.7007V22.0517C111.113 22.1091 111.084 22.1609 111.035 22.1872L109.865 22.8627C109.816 22.8909 109.756 22.8909 109.71 22.8627L108.538 22.1872C108.491 22.1609 108.459 22.1091 108.459 22.0517V20.7007C108.459 20.6461 108.491 20.5944 108.538 20.5652L109.71 19.8897C109.756 19.8615 109.816 19.8615 109.865 19.8897L111.035 20.5652C111.084 20.5944 111.113 20.6461 111.113 20.7007Z" fill="white"/>
<path fill-rule="evenodd" clip-rule="evenodd" d="M131.838 13.2994C129.689 13.2994 128.315 14.9835 128.315 17.0439C128.315 19.1269 129.8 20.8327 131.883 20.8327C134.053 20.8327 135.427 19.1495 135.427 17.0882C135.427 15.0052 133.943 13.2994 131.838 13.2994ZM131.839 23.1593C128.271 23.1593 125.634 20.4347 125.634 17.0882C125.634 13.72 128.293 10.9502 131.883 10.9502C135.472 10.9502 138.109 13.6758 138.109 17.0439C138.109 20.3905 135.449 23.1593 131.839 23.1593Z" fill="white"/>
<path fill-rule="evenodd" clip-rule="evenodd" d="M119.276 23.146C115.798 23.0792 113.28 20.3047 113.345 16.9591C113.409 13.6144 116.032 10.8729 119.532 10.9397C121.748 10.982 123.105 11.8278 124.168 13.0452L122.472 14.8074C121.669 13.9277 120.817 13.3134 119.465 13.287C117.516 13.2494 116.065 14.9062 116.025 16.9666C115.985 19.0713 117.393 20.7826 119.453 20.8221C120.716 20.8466 121.658 20.2661 122.516 19.4184L124.103 21.0442C122.927 22.3068 121.558 23.1893 119.276 23.146Z" fill="white"/>
<path fill-rule="evenodd" clip-rule="evenodd" d="M154.045 10.9506C156.594 10.9506 158.145 12.5678 158.145 15.4261V23.1597H155.464V16.2465C155.464 14.3855 154.599 13.3882 153.093 13.3882C151.631 13.3882 150.589 14.4072 150.589 16.2907V23.1597H147.908V16.2239C147.908 14.4072 147.021 13.3882 145.536 13.3882C144.053 13.3882 143.033 14.4965 143.033 16.3133V23.1597H140.352V10.9506H143.033V12.9677C143.787 11.9262 144.806 10.9506 146.601 10.9506C148.285 10.9506 149.459 11.771 150.079 13.011C151.033 11.771 152.273 10.9506 154.045 10.9506Z" fill="white"/>
<path fill-rule="evenodd" clip-rule="evenodd" d="M0 8.55707V23.7888L13.1236 31.4057L26.2444 23.7888V8.55707L13.1236 0.940857L0 8.55707ZM1.15518 23.121V9.22775L13.1237 2.27787L25.0929 9.22775V23.121L13.1237 30.068L1.15518 23.121Z" fill="#FEFEFE"/>
<path fill-rule="evenodd" clip-rule="evenodd" d="M18.2665 7.51685H7.95469L6.75928 12.802H19.5094L18.2665 7.51685Z" fill="#FEFEFE"/>
<path fill-rule="evenodd" clip-rule="evenodd" d="M9.78402 20.0752V16.5633L6.72964 14.6113L3.27295 17.1942L7.98479 25.4312H9.86679L12.0928 23.3482V22.3013L9.78402 20.0752Z" fill="#FEFEFE"/>
<path fill-rule="evenodd" clip-rule="evenodd" d="M16.4727 13.5994H9.79541L10.9203 16.5519L10.5777 19.8605H13.1226L15.6919 19.8489L15.3716 16.5519L16.4727 13.5994Z" fill="#FEFEFE"/>
<path fill-rule="evenodd" clip-rule="evenodd" d="M19.5274 14.5875L16.5083 16.5633V20.0752L14.2002 22.3014V23.3482L16.4255 25.408H18.2837L22.9725 17.1942L19.5274 14.5875Z" fill="#FEFEFE"/>
</svg>
