<?xml version="1.0" encoding="UTF-8"?>
<svg width="56px" height="56px" viewBox="0 0 56 56" version="1.1" xmlns="http://www.w3.org/2000/svg" xmlns:xlink="http://www.w3.org/1999/xlink">
    <title>C70A3951-3D22-46EE-A633-9786D5D5E0CC</title>
    <defs>
        <circle id="path-1" cx="28" cy="28" r="28"></circle>
        <filter x="-38.4%" y="-31.2%" width="176.8%" height="176.8%" filterUnits="objectBoundingBox" id="filter-2">
            <feMorphology radius="1.5" operator="dilate" in="SourceAlpha" result="shadowSpreadOuter1"></feMorphology>
            <feOffset dx="0" dy="4" in="shadowSpreadOuter1" result="shadowOffsetOuter1"></feOffset>
            <feGaussianBlur stdDeviation="5" in="shadowOffsetOuter1" result="shadowBlurOuter1"></feGaussianBlur>
            <feColorMatrix values="0 0 0 0 0   0 0 0 0 0   0 0 0 0 0  0 0 0 0.05 0" type="matrix" in="shadowBlurOuter1"></feColorMatrix>
        </filter>
    </defs>
    <g id="Chain-Website-Phase-2" stroke="none" stroke-width="1" fill="none" fill-rule="evenodd">
        <g id="chain-explorer_chain_website_home_page_$home_page$" transform="translate(-448.000000, -863.000000)">
            <g id="Group-16" transform="translate(448.000000, 863.000000)">
                <g id="Oval" opacity="0.0976795015">
                    <use fill="black" fill-opacity="1" filter="url(#filter-2)" xlink:href="#path-1"></use>
                    <use fill="#1199FA" fill-rule="evenodd" xlink:href="#path-1"></use>
                </g>
                <g id="Icon/Instant-blue" transform="translate(16.000000, 16.000000)" stroke="#1199FA" stroke-linecap="round" stroke-linejoin="round" stroke-width="2">
                    <g id="Group" transform="translate(0.000000, 1.000000)">
                        <line x1="5" y1="10" x2="0" y2="10" id="Shape"></line>
                        <line x1="6" y1="16" x2="3" y2="16" id="Shape"></line>
                        <line x1="8" y1="13" x2="2" y2="13" id="Shape"></line>
                        <g transform="translate(7.000000, 0.000000)">
                            <g transform="translate(5.000000, 0.000000)">
                                <circle id="Oval" cx="2" cy="13" r="1"></circle>
                                <line x1="2" y1="4" x2="2" y2="0" id="Shape"></line>
                                <line x1="0" y1="0" x2="4" y2="0" id="Shape"></line>
                            </g>
                            <path d="M0.2,7.2 C1.9,5.3 4.3,4 7,4 C12,4 16,8 16,13 C16,18 12,22 7,22 C4.3,22 1.9,20.8 0.3,19" id="Shape"></path>
                            <polyline id="Shape" points="13 6 15 4 16 5 14 7"></polyline>
                            <line x1="3.5" y1="9.5" x2="7" y2="13" id="Shape"></line>
                        </g>
                    </g>
                </g>
            </g>
        </g>
    </g>
</svg>