<?xml version="1.0" encoding="utf-8"?>
<!-- Generator: Adobe Illustrator 25.2.0, SVG Export Plug-In . SVG Version: 6.00 Build 0)  -->
<svg version="1.1" id="Layer_1" xmlns="http://www.w3.org/2000/svg" xmlns:xlink="http://www.w3.org/1999/xlink" x="0px" y="0px"
	 viewBox="0 0 56 56" style="enable-background:new 0 0 56 56;" xml:space="preserve" width="56px" height="56px">
<style type="text/css">
	.st0{opacity:9.767950e-02;}
	.st1{fill:#1199FA;}
	.st2{fill-rule:evenodd;clip-rule:evenodd;fill:#1199FA;}
</style>
<g class="st0">
	<circle class="st1" cx="28.2" cy="28" r="28"/>
</g>
<path class="st2" d="M18.5,19.5v6l0,0c0,0,0,0,0,0.1c0,0.1,0,0.2,0,0.3c0,0.3,0.1,0.8,0.1,1.3c0.2,1.1,0.5,2.6,1.1,4.2
	c1.3,3.2,3.8,6.9,8.7,8.7c0.5,0.2,0.8,0.8,0.6,1.3c-0.2,0.5-0.8,0.8-1.3,0.6c-5.6-2-8.5-6.2-9.9-9.8c-0.7-1.8-1.1-3.5-1.3-4.7
	c-0.1-0.6-0.1-1.1-0.2-1.5c0-0.2,0-0.3,0-0.4c0,0,0-0.1,0-0.1l0,0l0,0l0,0c0,0,0,0,1,0l-1,0l0,0v-6c0-0.6,0.3-1.2,0.7-1.5
	c0.4-0.4,0.9-0.7,1.5-0.7h1.2c0.6,0,1,0.4,1,1c0,0.6-0.4,1-1,1h-1.2c0,0,0,0,0,0c0,0-0.1,0-0.1,0.1C18.6,19.4,18.6,19.4,18.5,19.5
	C18.5,19.5,18.5,19.5,18.5,19.5z"/>
<path class="st2" d="M28.8,13.9c0.4,0.3,0.5,0.9,0.2,1.4l-0.8-0.6c0.8,0.6,0.8,0.6,0.8,0.6l0,0l0,0l0,0l0,0c0,0,0,0,0,0
	c0,0-0.1,0.1-0.1,0.1c-0.1,0.1-0.2,0.3-0.4,0.5c-0.4,0.4-0.9,0.9-1.7,1.4c-1.5,1-3.8,2-6.8,2c-0.6,0-1-0.4-1-1s0.4-1,1-1
	c2.6,0,4.5-0.8,5.7-1.6c0.6-0.4,1.1-0.8,1.4-1.1c0.1-0.1,0.3-0.3,0.3-0.3c0,0,0.1-0.1,0.1-0.1l0,0 M28.8,13.9
	c-0.4-0.3-1.1-0.2-1.4,0.2L28.8,13.9z M27.4,14.1L27.4,14.1L27.4,14.1z"/>
<path class="st2" d="M35.5,18.3c0-0.6,0.4-1,1-1h1.2c0.6,0,1.2,0.3,1.5,0.7c0.4,0.4,0.7,0.9,0.7,1.5v6l-1,0c1,0,1,0,1,0l0,0l0,0l0,0
	c0,0,0,0.1,0,0.1c0,0.1,0,0.2,0,0.4c0,0.4-0.1,0.9-0.2,1.5c-0.2,1.2-0.5,2.9-1.3,4.7C37,35.8,34.2,40,28.5,42
	c-0.5,0.2-1.1-0.1-1.3-0.6c-0.2-0.5,0.1-1.1,0.6-1.3c4.9-1.8,7.4-5.4,8.7-8.7c0.6-1.6,1-3.1,1.1-4.2c0.1-0.6,0.1-1,0.1-1.3
	c0-0.2,0-0.3,0-0.3c0,0,0-0.1,0-0.1l0,0v-6c0,0,0,0,0,0c0,0,0-0.1-0.1-0.1c0,0-0.1-0.1-0.1-0.1c0,0,0,0,0,0h-1.2
	C35.9,19.3,35.5,18.8,35.5,18.3z"/>
<path class="st2" d="M29,14.1c-0.3-0.4-0.9-0.5-1.4-0.2c-0.4,0.3-0.5,0.9-0.2,1.4l0.8-0.6c-0.8,0.6-0.8,0.6-0.8,0.6l0,0l0,0l0,0l0,0
	c0,0,0,0,0,0c0,0,0.1,0.1,0.1,0.1c0.1,0.1,0.2,0.3,0.4,0.5c0.4,0.4,0.9,0.9,1.7,1.4c1.5,1,3.8,2,6.8,2c0.6,0,1-0.4,1-1s-0.4-1-1-1
	c-2.6,0-4.5-0.8-5.7-1.6c-0.6-0.4-1.1-0.8-1.4-1.1c-0.1-0.1-0.3-0.3-0.3-0.3C29.1,14.1,29,14.1,29,14.1L29,14.1 M29,14.1L29,14.1
	L29,14.1z"/>
<path class="st2" d="M33.5,23.5c0.4,0.3,0.5,0.9,0.2,1.4l-5.2,7.2c-0.2,0.2-0.4,0.4-0.7,0.4c-0.3,0-0.6,0-0.8-0.2l-4.3-3.6
	c-0.4-0.4-0.5-1-0.1-1.4c0.4-0.4,1-0.5,1.4-0.1l3.4,2.9l4.6-6.3C32.4,23.2,33.1,23.1,33.5,23.5z"/>
</svg>
