<?xml version="1.0" encoding="iso-8859-1"?>
<!-- Generator: Adobe Illustrator 19.0.0, SVG Export Plug-In . SVG Version: 6.00 Build 0)  -->
<svg version="1.1" id="Layer_1" xmlns="http://www.w3.org/2000/svg" xmlns:xlink="http://www.w3.org/1999/xlink" x="0px" y="0px"
	 viewBox="0 0 512 512" style="enable-background:new 0 0 512 512;" xml:space="preserve">
<g transform="translate(1 1)">
	<g>
		<path style="fill:#E2E3E5;" d="M362.141,305.252c-7.585,9.481-17.067,18.963-26.548,26.548l148.859,148.859L511,454.111
			L362.141,305.252z"/>
		<path style="fill:#E2E3E5;" d="M416.185,201.904c0,104.296-85.333,189.63-189.63,189.63S36.926,306.2,36.926,201.904
			s85.333-189.63,189.63-189.63S416.185,97.607,416.185,201.904"/>
	</g>
	<path style="fill:#CCCCCC;" d="M387.741,201.904c0,104.296-85.333,189.63-189.63,189.63S8.481,306.2,8.481,201.904
		s85.333-189.63,189.63-189.63S387.741,97.607,387.741,201.904"/>
	<path style="fill:#E2E3E5;" d="M349.815,201.904c0,104.296-76.8,189.63-170.667,189.63S8.481,306.2,8.481,201.904
		s76.8-189.63,170.667-189.63S349.815,97.607,349.815,201.904"/>
	<path style="fill:#FFFFFF;" d="M179.148,391.533c6.637,0,12.326,0,18.963-0.948c-85.333-10.43-151.704-91.022-151.704-188.682
		s66.37-178.252,151.704-188.681c-6.637-0.948-12.326-0.948-18.963-0.948c-93.867,0-170.667,85.333-170.667,189.63
		S85.281,391.533,179.148,391.533"/>
	<g>
		<path style="fill:#B6B6B6;" d="M467.385,507.207c-2.844,0-4.741-0.948-6.637-2.844L310.941,355.504
			c-1.896-1.896-2.844-4.741-2.844-7.585c0-2.844,0.948-4.741,3.793-6.637c9.481-7.585,18.015-16.119,25.6-25.6
			c1.896-1.896,3.793-3.793,6.637-3.793c2.844,0,5.689,0.948,7.585,2.844L500.57,463.593c3.793,3.793,3.793,9.481,0,13.274
			l-26.548,26.548C472.126,506.259,470.23,507.207,467.385,507.207z M331.8,348.867l135.585,135.585l13.274-13.274L345.074,335.593
			C341.281,340.333,336.541,345.074,331.8,348.867z"/>
		<path style="fill:#B6B6B6;" d="M198.111,401.015C88.126,401.015-1,311.889-1,201.904c0-48.356,18.015-95.763,50.252-131.793
			c3.793-3.793,9.481-4.741,13.274-0.948s4.741,9.481,0.948,13.274c-29.393,33.185-45.511,75.852-45.511,119.467
			c0,99.556,80.593,180.148,180.148,180.148s180.148-80.593,180.148-180.148S297.667,21.756,198.111,21.756
			c-24.652,0-49.304,4.741-72.059,15.17c-4.741,1.896-10.43,0-12.326-4.741s0-10.43,4.741-12.326
			c25.6-11.378,52.148-17.067,79.644-17.067c109.985,0,199.111,89.126,199.111,199.111S308.096,401.015,198.111,401.015z"/>
		<path style="fill:#B6B6B6;" d="M93.815,50.2c0,5.689-3.793,9.481-9.481,9.481c-5.689,0-9.481-3.793-9.481-9.481
			s3.793-9.481,9.481-9.481S93.815,44.511,93.815,50.2"/>
	</g>
</g>
<g>
</g>
<g>
</g>
<g>
</g>
<g>
</g>
<g>
</g>
<g>
</g>
<g>
</g>
<g>
</g>
<g>
</g>
<g>
</g>
<g>
</g>
<g>
</g>
<g>
</g>
<g>
</g>
<g>
</g>
</svg>
