<?xml version="1.0" encoding="UTF-8"?>
<svg width="56px" height="56px" viewBox="0 0 56 56" version="1.1" xmlns="http://www.w3.org/2000/svg" xmlns:xlink="http://www.w3.org/1999/xlink">
    <title>3D88ADEC-71D1-49E0-A8E7-8973ACC668F8</title>
    <defs>
        <circle id="path-1" cx="28" cy="28" r="28"></circle>
        <filter x="-38.4%" y="-31.2%" width="176.8%" height="176.8%" filterUnits="objectBoundingBox" id="filter-2">
            <feMorphology radius="1.5" operator="dilate" in="SourceAlpha" result="shadowSpreadOuter1"></feMorphology>
            <feOffset dx="0" dy="4" in="shadowSpreadOuter1" result="shadowOffsetOuter1"></feOffset>
            <feGaussianBlur stdDeviation="5" in="shadowOffsetOuter1" result="shadowBlurOuter1"></feGaussianBlur>
            <feColorMatrix values="0 0 0 0 0   0 0 0 0 0   0 0 0 0 0  0 0 0 0.05 0" type="matrix" in="shadowBlurOuter1"></feColorMatrix>
        </filter>
    </defs>
    <g id="Chain-Website-Phase-2" stroke="none" stroke-width="1" fill="none" fill-rule="evenodd">
        <g id="chain-explorer_chain_website_home_page_$home_page$" transform="translate(-135.000000, -863.000000)">
            <g id="Group-6" transform="translate(135.000000, 863.000000)">
                <g id="Oval" opacity="0.0976795015">
                    <use fill="black" fill-opacity="1" filter="url(#filter-2)" xlink:href="#path-1"></use>
                    <use fill="#1199FA" fill-rule="evenodd" xlink:href="#path-1"></use>
                </g>
                <g id="Icon/Secure-blue" transform="translate(16.000000, 16.000000)" stroke="#1199FA" stroke-linecap="round" stroke-width="2">
                    <g id="Group" transform="translate(3.000000, 1.000000)">
                        <g id="Group-3">
                            <g id="Group-2" stroke-linejoin="round">
                                <path d="M18,20 C18,21.1 17.1,22 16,22 L2,22 C0.9,22 0,21.1 0,20 L0,10 C0,8.9 0.9,8 2,8 L16,8 C17.1,8 18,8.9 18,10 L18,20 Z" id="Shape"></path>
                                <path d="M4,5 C4,2.2 6.2,0 9,0 C11.8,0 14,2.2 14,5" id="Shape"></path>
                            </g>
                            <circle id="Oval" cx="9" cy="13" r="1"></circle>
                            <line x1="9" y1="14" x2="9" y2="17" id="Shape"></line>
                        </g>
                        <g transform="translate(4.000000, 5.000000)" id="Shape" stroke-linejoin="round">
                            <line x1="10" y1="0" x2="10" y2="2.6"></line>
                            <line x1="0" y1="2.9" x2="0" y2="0"></line>
                        </g>
                    </g>
                </g>
            </g>
        </g>
    </g>
</svg>