<svg width="56" height="56" viewBox="0 0 56 56" fill="none" xmlns="http://www.w3.org/2000/svg">
<circle cx="28" cy="28" r="28" fill="#1199FA" fill-opacity="0.1"/>
<path fill-rule="evenodd" clip-rule="evenodd" d="M37.7732 17.8839C33.3898 16.604 30.056 16.7983 27.5393 17.9267C25.0242 19.0545 23.4483 21.06 22.4659 23.164C21.4859 25.2628 21.0741 27.5038 20.9036 29.2002C20.8179 30.0524 20.7923 30.7765 20.7881 31.2896C20.7864 31.4998 20.7882 31.6749 20.7911 31.8094C19.9328 33.1077 19.2964 34.2729 18.8539 35.1674C18.5789 35.7233 18.3783 36.1755 18.2456 36.4913C18.1792 36.6493 18.1297 36.7732 18.0964 36.859C18.0797 36.9019 18.0671 36.9352 18.0583 36.9586L18.0481 36.986L18.0452 36.994L18.0443 36.9965L18.044 36.9974C18.0439 36.9977 18.0438 36.998 18.7739 37.247L18.0438 36.998C17.9024 37.3903 18.1147 37.8198 18.518 37.9573C18.9211 38.0948 19.3624 37.8884 19.5039 37.4964L19.504 37.4961L19.504 37.496L19.5053 37.4924L19.5123 37.4735C19.5189 37.456 19.5293 37.4285 19.5437 37.3915C19.5724 37.3177 19.6168 37.2062 19.6778 37.0611C19.7998 36.7709 19.9878 36.3465 20.2482 35.8202C20.6303 35.0479 21.1673 34.0579 21.8789 32.9514C25.996 34.0912 29.1602 33.8829 31.5749 32.8052C34.0906 31.6825 35.6674 29.6721 36.6509 27.5616C37.6321 25.4559 38.046 23.2046 38.2183 21.4997C38.3049 20.6433 38.3314 19.9153 38.3362 19.3994C38.3386 19.1413 38.3356 18.9357 38.3318 18.793C38.33 18.7217 38.328 18.666 38.3263 18.6274L38.3243 18.5823L38.3237 18.5696L38.3235 18.5658L38.3234 18.5645C38.3234 18.564 38.3233 18.5636 37.5508 18.6048L38.3233 18.5636C38.3055 18.2469 38.0855 17.9751 37.7732 17.8839ZM30.9297 31.437C29.023 32.2879 26.4007 32.5534 22.7777 31.6299C23.5575 30.5445 24.489 29.3966 25.587 28.2625C25.6119 28.2562 25.6367 28.2484 25.6612 28.2393C26.0034 28.1125 26.7842 28.0101 27.887 28.0646C28.9623 28.1177 30.2663 28.3162 31.6148 28.7278C31.9933 28.8433 32.3965 28.6384 32.5153 28.2701C32.6341 27.9018 32.4234 27.5096 32.0449 27.394C30.5749 26.9454 29.1503 26.7273 27.9598 26.6685C27.727 26.657 27.4997 26.6515 27.2802 26.6518C27.4752 26.4812 27.6743 26.3119 27.8776 26.144C27.8795 26.1434 27.8814 26.1427 27.8832 26.142C28.059 26.0791 28.1971 25.9607 28.2845 25.8146C29.9234 24.5139 31.8237 23.3163 34.0124 22.3581C34.4021 22.1875 34.5758 21.7419 34.4005 21.3628C34.2251 20.9837 33.7671 20.8147 33.3775 20.9853C31.5628 21.7797 29.9374 22.7279 28.4872 23.76C28.6434 23.0485 28.9218 22.1783 29.3526 21.2709C29.5318 20.8935 29.3625 20.4463 28.9746 20.272C28.5867 20.0976 28.127 20.2623 27.9478 20.6397C27.4297 21.731 27.1045 22.7828 26.9334 23.6392C26.8479 24.0669 26.7988 24.4562 26.7857 24.7849C26.782 24.8783 26.7807 24.9754 26.7838 25.0729C25.0406 26.5245 23.5983 28.074 22.4236 29.5563C22.4298 29.4874 22.4365 29.4176 22.4436 29.3467C22.6052 27.7391 22.9914 25.6784 23.8747 23.7866C24.7557 21.8999 26.1085 20.2259 28.187 19.2939C30.1727 18.4035 32.9334 18.1399 36.7896 19.1748C36.7898 19.2398 36.7896 19.3102 36.7889 19.3858C36.7844 19.8653 36.7597 20.5479 36.6784 21.3524C36.515 22.9692 36.1266 25.0409 35.2416 26.94C34.3589 28.8343 33.0055 30.5106 30.9297 31.437Z" fill="#1199FA"/>
</svg>
