<svg width="24" height="23" viewBox="0 0 24 23" fill="none" xmlns="http://www.w3.org/2000/svg">
<path d="M12 0C5.37 0 0 5.24073 0 11.7043C0 16.8765 3.438 21.2627 8.205 22.8091C8.805 22.9193 9.025 22.557 9.025 22.2463C9.025 21.9684 9.015 21.2319 9.01 20.2562C5.672 20.9619 4.968 18.686 4.968 18.686C4.422 17.3351 3.633 16.9738 3.633 16.9738C2.546 16.2482 3.717 16.2631 3.717 16.2631C4.922 16.3445 5.555 17.4691 5.555 17.4691C6.625 19.2587 8.364 18.7416 9.05 18.4428C9.158 17.6855 9.467 17.1703 9.81 16.8775C7.145 16.5847 4.344 15.5783 4.344 11.0939C4.344 9.81644 4.809 8.77226 5.579 7.9534C5.444 7.65762 5.039 6.46753 5.684 4.85561C5.684 4.85561 6.689 4.54196 8.984 6.05562C9.944 5.79557 10.964 5.66654 11.984 5.66058C13.004 5.66654 14.024 5.79557 14.984 6.05562C17.264 4.54196 18.269 4.85561 18.269 4.85561C18.914 6.46753 18.509 7.65762 18.389 7.9534C19.154 8.77226 19.619 9.81644 19.619 11.0939C19.619 15.5902 16.814 16.5798 14.144 16.8676C14.564 17.219 14.954 17.9366 14.954 19.0334C14.954 20.5996 14.939 21.8582 14.939 22.2384C14.939 22.5451 15.149 22.9113 15.764 22.7942C20.565 21.2577 24 16.8686 24 11.7043C24 5.24073 18.627 0 12 0V0Z" fill="#808C99"/>
</svg>
