<?xml version="1.0" encoding="UTF-8"?>
<svg id="Layer_2" data-name="Layer 2" xmlns="http://www.w3.org/2000/svg" viewBox="0 0 516 150.45">
  <defs>
    <style>
      .cls-1 {
        fill-rule: evenodd;
      }

      .cls-1, .cls-2 {
        fill: #fff;
        stroke-width: 0px;
      }
    </style>
  </defs>
  <g id="Layer_4" data-name="Layer 4">
    <g>
      <path class="cls-1" d="M19.51,98.67v-51.34l43.99-25.67,43.96,25.67v51.34l-43.96,25.67-43.99-25.67ZM63.5,0L1,36.5v73l62.5,36.5,62.5-36.5V36.5L63.5,0Z"/>
      <path class="cls-1" d="M63,146l63-36.5V36.5L63,0v21.66l44.32,25.67v51.37l-44.32,25.67v21.63Z"/>
      <path class="cls-1" d="M63,124.37l-44.34-25.67v-51.37l44.34-25.67V0L0,36.5v73l63,36.5v-21.63Z"/>
      <path class="cls-1" d="M93,90.01l-29.49,16.99-29.51-16.99v-34l29.51-17.01,29.49,17.01-12.27,7.06-17.21-9.9-17.21,9.9v19.85l17.21,9.9,17.21-9.9,12.27,7.09Z"/>
      <path class="cls-1" d="M243.08,61.93v-12.73h-12.88v56.51h12.88v-21.51c0-14.98,7.81-22.36,19.01-22.36h.73v-13.69c-9.82-.42-16.25,5.35-19.74,13.81v-.02ZM298.7,48.05c-17.09,0-29.77,13.37-29.77,29.52v.22c0,16.06,12.56,29.21,29.56,29.21s29.87-13.37,29.87-29.43v-.22c0-16.15-12.56-29.33-29.65-29.33v.02ZM315.61,77.77c0,9.73-6.55,17.87-16.9,17.87s-17-8.24-17-18.09v-.22c0-9.85,6.55-17.99,16.78-17.99s17.09,8.24,17.09,18.18v.22l.02.02ZM196.43,95.64c-9.82,0-16.68-8.02-16.68-18.09v-.22c0-9.85,6.86-17.99,16.15-17.99,6.33,0,10.45,3.01,14.35,7.06l8.03-8.68c-5.29-5.77-11.83-9.73-22.26-9.73-16.78,0-29.02,13.49-29.02,29.52v.22c0,16.06,12.24,29.21,28.8,29.21,10.86,0,17.31-4.4,22.79-10.58l-7.71-7.7c-4.12,4.18-8.44,6.97-14.45,6.97ZM498.66,72.32c-6.55-2.15-12.56-3.86-12.56-8.02v-.22c0-3.1,2.86-5.57,7.81-5.57,4.66,0,10.35,2.03,15.74,5.35l5.07-9.21c-5.92-3.96-13.51-6.43-20.46-6.43-11.08,0-19.83,6.53-19.83,17.33v.22c0,10.7,9.19,14.13,17.41,16.47,6.55,2.03,12.46,3.52,12.46,7.92v.22c0,3.74-3.18,6.11-8.66,6.11s-12.15-2.35-18.26-6.96l-5.7,8.77c6.96,5.67,15.74,8.46,23.64,8.46,11.61,0,20.68-5.89,20.68-17.77v-.22c0-10.17-9.19-13.91-17.31-16.47l-.02.02ZM371.59,48c-8.66,0-13.82,4.59-17.41,9.85v-8.68h-12.88v56.51h12.88v-31.89c0-8.77,5.16-14,12.56-14s11.93,5.03,11.93,13.81v32.09h12.78v-36.05c0-13.05-7.27-21.61-19.83-21.61l-.02-.02ZM433.59,48.02c-17.09,0-29.77,13.37-29.77,29.52v.22c0,16.06,12.56,29.21,29.56,29.21s29.87-13.37,29.87-29.43v-.22c0-16.16-12.56-29.33-29.65-29.33v.02ZM450.49,77.74c0,9.73-6.55,17.87-16.9,17.87s-17-8.24-17-18.09v-.22c0-9.85,6.55-17.99,16.78-17.99s17.09,8.24,17.09,18.18v.22l.03.02Z"/>
      <g>
        <path class="cls-2" d="M369,150.27v-4.41l14.51-16.89h-14.06v-5.09h21.53v4.41l-14.51,16.89h14.51v5.09h-21.98Z"/>
        <path class="cls-2" d="M413.52,150.27l-8.18-11.23-3.05,3.17v8.07h-5.81v-26.39h5.81v11.54l10.71-11.54h7.01l-10.74,11.2,11.23,15.19h-6.97Z"/>
        <path class="cls-2" d="M435.31,150.27v-26.39h19.87v5.17h-14.14v5.35h12.44v5.17h-12.44v5.54h14.33v5.17h-20.06Z"/>
        <path class="cls-2" d="M474.1,150.45h-5.13l-10.67-26.58h6.41l6.9,18.59,6.9-18.59h6.26l-10.67,26.58Z"/>
        <path class="cls-2" d="M509.5,150.27v-17.23l-7.43,11.27h-.15l-7.35-11.16v17.12h-5.73v-26.39h6.26l6.94,11.16,6.94-11.16h6.26v26.39h-5.73Z"/>
      </g>
    </g>
  </g>
</svg>